PathFileType	4	(X/Y/Z)	/Users/itak/Documents/Research/Walk-IL/dataset/trc/00304_00010.trc
DataRate	CameraRate	NumFrames	NumMarkers	Units	OrigDataRate	OrigDataStartFrame	OrigNumFrames
100.000000	100.000000	4	56	mm	100.000000	0	540
Frame#	Time	RPSI			L3			STRN			T10			C7			CLAV			RBAK			LBAK			LSHO			LUPA			LAEL			LAOL			LWTS			LWPS			LFRA			LIFD			LHPS			LHTS			RSHO			RUPA			RAEL			RAOL			RWTS			RWPS			RFRA			RIFD			RHPS			RBHD			LFHD			RFHD			LBHD			LHIP			RHIP			RASI			LASI			LKNE			LTHI			LANK			LTIP			LTOE			LMT1			LMT5			LHEE			RKNE			RTHI			RANK			RTIP			RTOE			RMT1			RMT5			LPSI			RHEE			RHTS			*53			*54			*55			
		X1	Y1	Z1	X2	Y2	Z2	X3	Y3	Z3	X4	Y4	Z4	X5	Y5	Z5	X6	Y6	Z6	X7	Y7	Z7	X8	Y8	Z8	X9	Y9	Z9	X10	Y10	Z10	X11	Y11	Z11	X12	Y12	Z12	X13	Y13	Z13	X14	Y14	Z14	X15	Y15	Z15	X16	Y16	Z16	X17	Y17	Z17	X18	Y18	Z18	X19	Y19	Z19	X20	Y20	Z20	X21	Y21	Z21	X22	Y22	Z22	X23	Y23	Z23	X24	Y24	Z24	X25	Y25	Z25	X26	Y26	Z26	X27	Y27	Z27	X28	Y28	Z28	X29	Y29	Z29	X30	Y30	Z30	X31	Y31	Z31	X32	Y32	Z32	X33	Y33	Z33	X34	Y34	Z34	X35	Y35	Z35	X36	Y36	Z36	X37	Y37	Z37	X38	Y38	Z38	X39	Y39	Z39	X40	Y40	Z40	X41	Y41	Z41	X42	Y42	Z42	X43	Y43	Z43	X44	Y44	Z44	X45	Y45	Z45	X46	Y46	Z46	X47	Y47	Z47	X48	Y48	Z48	X49	Y49	Z49	X50	Y50	Z50	X51	Y51	Z51	X52	Y52	Z52	X53	Y53	Z53	X54	Y54	Z54	X55	Y55	Z55	X56	Y56	Z56	

1	0	-1405.615234375	1017.611511230469	679.9317626953125	-1375.659545898438	1078.3447265625	591.489013671875	-1131.443969726562	1261.515258789062	609.56005859375	-1387.317138671875	1184.6416015625	588.779052734375	-1360.909912109375	1431.821411132812	575.9190063476562	-1197.266845703125	1361.795654296875	599.446044921875	-1409.87939453125	1291.606811523438	649.485107421875	-1362.586791992188	1394.930053710938	469.8007507324219	-1267.2763671875	1408.161743164062	427.6238098144531	-1273.275512695312	1289.288330078125	350.3377075195312	-1243.735595703125	1086.484252929688	339.4672241210938	-1315.112060546875	1067.271118164062	384.2506408691406	-1160.354125976562	870.8388671875	411.3551635742188	-1175.4111328125	856.712890625	342.3578491210938	-1218.303955078125	983.4429931640625	336.6133728027344	-1147.547729492188	687.8565063476562	414.7091979980469	-1166.68359375	768.6717529296875	348.0573120117188	-1125.7451171875	774.168701171875	400.324462890625	-1306.611938476562	1413.994750976562	742.1448364257812	-1316.673706054688	1355.735229492188	808.166259765625	-1315.262817382812	1089.639892578125	859.2613525390625	-1341.800170898438	1080.172607421875	767.4447631835938	-1204.464477539062	869.2666015625	812.40478515625	-1250.843627929688	863.3983154296875	884.3529663085938	-1288.958251953125	1023.449462890625	872.6590576171875	-1194.725341796875	683.9539794921875	809.583984375	-1223.064453125	752.4854125976562	881.221923828125	-1351.117919921875	1601.379272460938	635.5609130859375	-1159.6044921875	1634.986938476562	549.41455078125	-1178.411010742188	1637.973510742188	640.2342529296875	-1321.225341796875	1587.85986328125	493.9717407226562	-1314.906005859375	956.0734252929688	418.2734069824219	-1314.62841796875	967.9241333007812	791.1109619140625	-1188.483764648438	969.0662841796875	730.7694091796875	-1181.447509765625	963.3104248046875	479.6051330566406	-1259.688842773438	489.5989685058594	446.5980529785156	-1264.827880859375	631.7966918945312	426.5721130371094	-1357.674560546875	50.53045654296875	455.1980285644531	-1316.272827148438	266.4176940917969	441.7987060546875	-1151.05419921875	44.23514938354492	513.9702758789062	-1221.645874023438	34.38085174560547	553.8701782226562	-1234.090942382812	47.67183303833008	442.2665710449219	-1403.234130859375	42.87784576416016	514.8048095703125	-1284.749877929688	493.2553100585938	774.7451171875	-1256.007202148438	756.0117797851562	797.6835327148438	-1344.8046875	47.43156814575195	761.0139770507812	-1278.068481445312	370.9188537597656	768.2306518554688	-1144.239624023438	49.87760543823242	728.9010009765625	-1197.376953125	47.01351928710938	683.4356689453125	-1242.393798828125	39.86446380615234	791.6393432617188	-1390.6162109375	1007.416015625	505.2719116210938	-1391.205810546875	42.92287445068359	706.0966796875	-1172.171997070312	754.3963012695312	829.7109985351562	nan	nan	nan	nan	nan	nan	nan	nan	nan	
2	0.01	-1405.502685546875	1017.655334472656	679.8174438476562	-1375.630004882812	1078.3603515625	591.4735107421875	-1131.406982421875	1261.502075195312	609.3400268554688	-1387.298095703125	1184.654052734375	588.7918701171875	-1360.868896484375	1431.8427734375	575.8703002929688	-1197.226440429688	1361.855834960938	599.2544555664062	-1409.7568359375	1291.640869140625	649.5411987304688	-1362.658325195312	1394.92578125	469.7550964355469	-1267.371948242188	1408.163940429688	427.5006103515625	-1273.3876953125	1289.269287109375	350.2887268066406	-1243.885498046875	1086.4384765625	339.4976196289062	-1315.250366210938	1067.257080078125	384.3158264160156	-1160.49072265625	870.7789306640625	411.5361022949219	-1175.587646484375	856.6341552734375	342.5650939941406	-1218.403930664062	983.3882446289062	336.7086486816406	-1147.85302734375	687.8071899414062	414.9898376464844	-1166.872802734375	768.5792236328125	348.3568725585938	-1126.071533203125	774.0397338867188	400.5603332519531	-1306.4306640625	1414.051635742188	742.0438232421875	-1316.402709960938	1355.858642578125	808.09912109375	-1315.006225585938	1089.739990234375	859.3827514648438	-1341.556030273438	1080.255615234375	767.5787963867188	-1204.665161132812	869.1090087890625	812.6917724609375	-1250.822021484375	863.4151611328125	884.6337890625	-1288.687622070312	1023.550720214844	872.7869262695312	-1194.989624023438	683.8158569335938	810.0433959960938	-1223.134033203125	752.442138671875	881.4907836914062	-1351.1123046875	1601.323608398438	635.5570678710938	-1159.720092773438	1635.069458007812	549.230224609375	-1178.457397460938	1637.987915039062	640.1145629882812	-1321.329956054688	1587.931274414062	493.8933715820312	-1314.919067382812	956.0675048828125	418.1707458496094	-1314.685791015625	967.9777221679688	791.1317138671875	-1188.4677734375	969.0884399414062	730.714599609375	-1181.470458984375	963.290283203125	479.4863586425781	-1259.764404296875	489.5747680664062	446.5426330566406	-1264.8896484375	631.8067016601562	426.4927673339844	-1357.664184570312	50.50934600830078	455.2063903808594	-1316.306518554688	266.4176635742188	441.7719116210938	-1151.110229492188	44.3045768737793	513.949951171875	-1221.679809570312	34.37654113769531	553.8663330078125	-1234.092041015625	47.668701171875	442.2749938964844	-1403.243041992188	42.87560272216797	514.7986450195312	-1285.290893554688	493.2167358398438	774.6952514648438	-1256.216186523438	755.965576171875	797.5328979492188	-1344.8056640625	47.41322708129883	761.0291748046875	-1278.512451171875	371.0447998046875	768.2688598632812	-1144.244018554688	49.89025497436523	728.912109375	-1197.389038085938	47.03080749511719	683.4489135742188	-1242.4111328125	39.9389762878418	791.7138061523438	-1390.574829101562	1007.465209960938	505.2110595703125	-1391.235595703125	42.91779708862305	706.1281127929688	-1172.557495117188	754.1302490234375	830.3095092773438	nan	nan	nan	nan	nan	nan	nan	nan	nan	
3	0.02	-1405.366333007812	1017.711730957031	679.6751708984375	-1375.591186523438	1078.37890625	591.45751953125	-1131.3583984375	1261.4990234375	609.0572509765625	-1387.275756835938	1184.676635742188	588.8052368164062	-1360.803588867188	1431.875244140625	575.8099365234375	-1197.157836914062	1361.932006835938	599.00634765625	-1409.599975585938	1291.692016601562	649.6049194335938	-1362.732421875	1394.929077148438	469.7011413574219	-1267.480834960938	1408.168334960938	427.3483581542969	-1273.536987304688	1289.253784179688	350.2171936035156	-1244.073974609375	1086.38671875	339.5296630859375	-1315.428588867188	1067.24853515625	384.3922729492188	-1160.69775390625	870.7183837890625	411.7608947753906	-1175.83984375	856.5328369140625	342.8250122070312	-1218.560546875	983.3238525390625	336.8273315429688	-1148.2568359375	687.7568359375	415.3465576171875	-1167.126220703125	768.4712524414062	348.7213439941406	-1126.505126953125	773.9012451171875	400.8560791015625	-1306.192016601562	1414.12646484375	741.9073486328125	-1316.063110351562	1356.01416015625	808.0193481445312	-1314.697387695312	1089.866333007812	859.5321655273438	-1341.268310546875	1080.379028320312	767.7277221679688	-1204.872802734375	868.9425048828125	813.0399780273438	-1250.756469726562	863.4662475585938	884.98876953125	-1288.3291015625	1023.681274414062	872.9555053710938	-1195.289184570312	683.674560546875	810.647216796875	-1223.237182617188	752.443359375	881.90478515625	-1351.092041015625	1601.26171875	635.5576782226562	-1159.849853515625	1635.162719726562	549.0098266601562	-1178.497924804688	1638.005004882812	639.9669799804688	-1321.4521484375	1588.013916015625	493.8063659667969	-1314.917236328125	956.0625610351562	418.0464477539062	-1314.700805664062	968.00537109375	791.1121826171875	-1188.45947265625	969.111083984375	730.6426391601562	-1181.481079101562	963.2674560546875	479.3416748046875	-1259.837036132812	489.5441589355469	446.4782104492188	-1264.953491210938	631.8130493164062	426.4027099609375	-1357.654541015625	50.48881149291992	455.2140502929688	-1316.331176757812	266.416748046875	441.7394714355469	-1151.172119140625	44.37358474731445	513.9273071289062	-1221.717407226562	34.36848831176758	553.8629150390625	-1234.092529296875	47.66493606567383	442.2852172851562	-1403.251831054688	42.873779296875	514.7926635742188	-1285.932495117188	493.177978515625	774.6498413085938	-1256.4931640625	755.9268188476562	797.3670654296875	-1344.808227539062	47.39353942871094	761.048828125	-1279.05615234375	371.189208984375	768.3142700195312	-1144.245971679688	49.89579772949219	728.9161376953125	-1197.40234375	47.05051422119141	683.4633178710938	-1242.435180664062	40.00328826904297	791.7901611328125	-1390.516357421875	1007.536682128906	505.1267700195312	-1391.271118164062	42.91238784790039	706.1683959960938	-1172.951293945312	753.8496704101562	830.9885864257812	nan	nan	nan	nan	nan	nan	nan	nan	nan	
4	0.03	-1405.213989257812	1017.778259277344	679.5128173828125	-1375.54345703125	1078.39892578125	591.4430541992188	-1131.2998046875	1261.51123046875	608.723388671875	-1387.25048828125	1184.71240234375	588.81689453125	-1360.710205078125	1431.919799804688	575.7415161132812	-1197.055908203125	1362.020629882812	598.7105102539062	-1409.413940429688	1291.76220703125	649.670654296875	-1362.797973632812	1394.943725585938	469.6426696777344	-1267.592041015625	1408.17626953125	427.1750183105469	-1273.719970703125	1289.246948242188	350.1215515136719	-1244.29443359375	1086.333740234375	339.5584411621094	-1315.642578125	1067.2509765625	384.4727783203125	-1160.987182617188	870.6655883789062	412.0180053710938	-1176.168212890625	856.4132080078125	343.1215515136719	-1218.783203125	983.2537841796875	336.9610595703125	-1148.749755859375	687.7120971679688	415.7621154785156	-1167.443359375	768.35009765625	349.1243896484375	-1127.03466796875	773.7704467773438	401.1956176757812	-1305.90185546875	1414.2177734375	741.7378540039062	-1315.6689453125	1356.194946289062	807.9346313476562	-1314.35009765625	1090.015625	859.7020874023438	-1340.954467773438	1080.54296875	767.8792724609375	-1205.058349609375	868.7891845703125	813.435302734375	-1250.640258789062	863.564453125	885.406494140625	-1287.893920898438	1023.836669921875	873.15966796875	-1195.598266601562	683.5443725585938	811.3753051757812	-1223.372192382812	752.5025024414062	882.4698486328125	-1351.05078125	1601.199829101562	635.5651245117188	-1159.981323242188	1635.258666992188	548.7681884765625	-1178.522216796875	1638.024169921875	639.798095703125	-1321.58203125	1588.10107421875	493.7198181152344	-1314.891845703125	956.0593872070312	417.9072570800781	-1314.644897460938	967.9866333007812	791.0293579101562	-1188.461059570312	969.1314697265625	730.5565185546875	-1181.469848632812	963.2433471679688	479.1786499023438	-1259.894165039062	489.5087280273438	446.4103088378906	-1265.010620117188	631.8126831054688	426.3101196289062	-1357.647094726562	50.47219085693359	455.2196960449219	-1316.339233398438	266.4147644042969	441.7037963867188	-1151.229736328125	44.42977523803711	513.9068603515625	-1221.755004882812	34.35616683959961	553.86083984375	-1234.09228515625	47.66114807128906	442.29638671875	-1403.259643554688	42.87287521362305	514.7872924804688	-1286.62939453125	493.1456909179688	774.6162109375	-1256.830322265625	755.9046630859375	797.2056274414062	-1344.812622070312	47.37526702880859	761.07177734375	-1279.663940429688	371.3390808105469	768.3624877929688	-1144.244018554688	49.88990783691406	728.909912109375	-1197.41552734375	47.07109451293945	683.4774780273438	-1242.4638671875	40.04906463623047	791.8590698242188	-1390.441772460938	1007.631530761719	505.0191345214844	-1391.307739257812	42.90480804443359	706.2127685546875	-1173.2880859375	753.593505859375	831.6971435546875	nan	nan	nan	nan	nan	nan	nan	nan	nan	
